<svg xmlns="http://www.w3.org/2000/svg" viewBox="0 0 400 300" role="img" aria-labelledby="title desc">
  <title id="title">Alpaca actively pedaling a bicycle</title>
  <desc id="desc">Prompt: Generate an SVG of an alpaca riding a bicycle. Include the alpaca's distinctive large neck/alpaca features and fur, show the alpaca actively pedaling a bicycle, use a reasonable viewBox around 400x300, and make it recognizable as an alpaca.</desc>
  <defs>
    <linearGradient id="sky" x1="0" y1="0" x2="0" y2="1">
      <stop offset="0%" stop-color="#bfe9ff"/>
      <stop offset="62%" stop-color="#f7fbff"/>
      <stop offset="100%" stop-color="#dff7cf"/>
    </linearGradient>
    <radialGradient id="fleece" cx="45%" cy="35%" r="75%">
      <stop offset="0%" stop-color="#fff9ec"/>
      <stop offset="70%" stop-color="#eadcc7"/>
      <stop offset="100%" stop-color="#d9c4a7"/>
    </radialGradient>
    <filter id="shadow" x="-20%" y="-20%" width="140%" height="140%">
      <feDropShadow dx="0" dy="3" stdDeviation="2" flood-color="#5d4936" flood-opacity="0.25"/>
    </filter>
    <style>
      .outline{stroke:#33251d;stroke-width:3;stroke-linecap:round;stroke-linejoin:round}
      .softOutline{stroke:#33251d;stroke-width:2;stroke-linecap:round;stroke-linejoin:round}
      .bike{fill:none;stroke:#173c62;stroke-width:4;stroke-linecap:round;stroke-linejoin:round}
      .bikeThin{fill:none;stroke:#4d6d8b;stroke-width:1.4;stroke-linecap:round}
      .fur{fill:url(#fleece);stroke:#33251d;stroke-width:2.6;stroke-linecap:round;stroke-linejoin:round}
      .cream{fill:#fff4dc}.tan{fill:#d4a875}.dark{fill:#33251d}.hoof{fill:#4a3024}
      .motion{fill:none;stroke:#63a9d6;stroke-width:3;stroke-linecap:round;opacity:.75}
      .prompt{font-family:Verdana,Arial,sans-serif;font-size:8.5px;fill:#243748}
      @media (prefers-reduced-motion:no-preference){
        .wheel{transform-box:fill-box;transform-origin:center;animation:spin .7s linear infinite}
        .crank{transform-box:fill-box;transform-origin:200px 212px;animation:spin .7s linear infinite}
        .bob{animation:bob .7s ease-in-out infinite alternate}
        .scarf{animation:flap .45s ease-in-out infinite alternate}
      }
      @keyframes spin{to{transform:rotate(360deg)}}
      @keyframes bob{to{transform:translateY(-3px)}}
      @keyframes flap{to{transform:translateX(-5px) rotate(-3deg)}}
    </style>
  </defs>

  <rect width="400" height="300" fill="url(#sky)"/>
  <circle cx="333" cy="48" r="22" fill="#ffe48d" opacity=".9"/>
  <path d="M0 244 C50 232 88 250 137 240 S226 229 285 241 361 250 400 238 L400 300 L0 300 Z" fill="#93d47b"/>
  <path d="M38 76h42M300 88h58M318 68h37" class="motion"/>
  <path d="M39 215h45M308 216h54M322 235h33" class="motion"/>

  <g filter="url(#shadow)">
    <g class="wheel">
      <circle cx="105" cy="222" r="50" class="bike"/>
      <circle cx="105" cy="222" r="42" class="bikeThin"/>
      <path d="M105 172v100M55 222h100M70 187l70 70M140 187l-70 70" class="bikeThin"/>
    </g>
    <g class="wheel">
      <circle cx="292" cy="222" r="50" class="bike"/>
      <circle cx="292" cy="222" r="42" class="bikeThin"/>
      <path d="M292 172v100M242 222h100M257 187l70 70M327 187l-70 70" class="bikeThin"/>
    </g>
    <circle cx="105" cy="222" r="5" fill="#173c62"/>
    <circle cx="292" cy="222" r="5" fill="#173c62"/>
    <path d="M105 222 L162 222 L200 178 L244 222 L292 222 M162 222 L139 181 L200 178 L244 222 M200 178 L207 153" class="bike"/>
    <path d="M207 153h34" class="bike"/>
    <path d="M292 222 L317 169 L342 166 M342 166 l-12 -12" class="bike"/>
    <path d="M105 222 L77 178 L58 179" class="bike"/>
    <ellipse cx="211" cy="154" rx="18" ry="7" fill="#173c62" transform="rotate(-7 211 154)"/>
  </g>

  <g class="bob">
    <path d="M170 155 C150 128 150 95 165 70 C175 52 198 54 203 76 C209 103 194 129 199 157 Z" class="fur"/>
    <path d="M203 79 C213 63 233 59 250 70 C266 80 269 99 257 112 C242 128 211 119 202 101 Z" class="fur"/>
    <path d="M218 69 L209 39 L231 62" class="fur"/>
    <path d="M246 73 L255 42 L261 78" class="fur"/>
    <path d="M254 97 C272 94 284 102 281 114 C278 125 261 125 250 113 Z" fill="#f1d2aa" class="outline"/>
    <circle cx="232" cy="88" r="3.2" class="dark"/>
    <circle cx="261" cy="99" r="2.7" class="dark"/>
    <path d="M253 107 q7 6 16 0" class="softOutline" fill="none"/>
    <path d="M224 83 q-8 -5 -15 -1 M235 80 q8 -6 17 -1" class="softOutline" fill="none"/>
    <path d="M207 59 C213 50 230 49 235 60 M197 66 C206 50 226 47 239 62 M217 64 C225 52 243 53 249 67" fill="none" stroke="#fff9ec" stroke-width="5" stroke-linecap="round"/>

    <ellipse cx="187" cy="151" rx="67" ry="42" class="fur"/>
    <path d="M130 143 C111 138 104 119 118 105 C138 86 169 101 177 128" class="fur"/>
    <path d="M143 111 C156 104 177 109 188 126" fill="none" stroke="#fff9ec" stroke-width="7" stroke-linecap="round"/>
    <path d="M132 172 C151 194 184 200 215 190 C242 181 264 160 258 137" fill="none" stroke="#cdb18f" stroke-width="7" stroke-linecap="round" opacity=".55"/>
    <path d="M129 128 c-12 8 -14 21 -5 31 M154 113 c-13 5 -19 16 -15 28 M184 108 c-12 8 -16 20 -9 33 M213 112 c-10 9 -12 20 -4 31 M239 126 c-8 8 -9 18 -2 27" fill="none" stroke="#fff9ec" stroke-width="5" stroke-linecap="round" opacity=".9"/>
    <path d="M164 114 C183 106 221 112 244 130" fill="none" stroke="#6a4d38" stroke-width="3" stroke-linecap="round" opacity=".5"/>
    <path d="M158 142 C175 136 217 139 242 153" fill="none" stroke="#6a4d38" stroke-width="2" stroke-linecap="round" opacity=".35"/>

    <g class="scarf" transform-origin="166 102">
      <path d="M164 100 C145 95 130 89 116 75" fill="none" stroke="#e94b5f" stroke-width="9" stroke-linecap="round"/>
      <path d="M160 110 C143 112 128 115 110 126" fill="none" stroke="#f47c65" stroke-width="8" stroke-linecap="round"/>
    </g>
    <path d="M164 98 C176 105 191 105 202 96" fill="none" stroke="#e94b5f" stroke-width="10" stroke-linecap="round"/>
  </g>

  <g>
    <path d="M139 174 C132 190 133 204 151 214 L176 229" class="outline" fill="none"/>
    <path d="M151 214 L176 229" class="outline" fill="none"/>
    <ellipse cx="181" cy="231" rx="12" ry="6" class="hoof" transform="rotate(18 181 231)"/>
    <path d="M184 177 C197 190 205 201 200 212 L184 237" class="outline" fill="none"/>
    <ellipse cx="181" cy="241" rx="12" ry="6" class="hoof" transform="rotate(-24 181 241)"/>
    <path d="M220 174 C232 190 238 205 226 217 L211 229" class="outline" fill="none"/>
    <ellipse cx="207" cy="232" rx="12" ry="6" class="hoof" transform="rotate(-25 207 232)"/>
    <path d="M244 163 C262 176 271 194 263 211 L248 239" class="outline" fill="none"/>
    <ellipse cx="246" cy="243" rx="12" ry="6" class="hoof" transform="rotate(-10 246 243)"/>
  </g>

  <g class="crank">
    <circle cx="200" cy="212" r="12" fill="none" stroke="#173c62" stroke-width="3"/>
    <path d="M200 212 L177 229 M200 212 L222 195" stroke="#173c62" stroke-width="4" stroke-linecap="round"/>
    <rect x="166" y="225" width="23" height="7" rx="3.5" fill="#173c62" transform="rotate(18 177 229)"/>
    <rect x="211" y="191" width="23" height="7" rx="3.5" fill="#173c62" transform="rotate(-25 222 195)"/>
  </g>

  <path d="M19 258 C42 252 56 252 84 258 M276 260 C305 252 331 252 370 260" fill="none" stroke="#4d8f50" stroke-width="4" stroke-linecap="round" opacity=".55"/>
  <text x="14" y="16" class="prompt">
    <tspan x="14" dy="0">Prompt: Generate an SVG of an alpaca riding a bicycle.</tspan>
    <tspan x="14" dy="10">Include the alpaca's distinctive large neck/alpaca features and fur, show the alpaca actively pedaling a bicycle,</tspan>
    <tspan x="14" dy="10">use a reasonable viewBox around 400x300, and make it recognizable as an alpaca.</tspan>
  </text>
</svg>
